<svg width="114" height="113" viewBox="0 0 114 113" fill="none" xmlns="http://www.w3.org/2000/svg">
<path d="M99.375 65.9167V89.4583C99.375 91.9558 98.3829 94.351 96.6169 96.1169C94.851 97.8829 92.4558 98.875 89.9583 98.875H24.0417C21.5442 98.875 19.149 97.8829 17.3831 96.1169C15.6171 94.351 14.625 91.9558 14.625 89.4583V23.5417C14.625 21.0442 15.6171 18.649 17.3831 16.8831C19.149 15.1171 21.5442 14.125 24.0417 14.125H47.5833V23.5417H24.0417V89.4583H89.9583V65.9167H99.375Z" fill="#00598E"/>
<path d="M99.375 32.9583H80.5417V14.125H71.125V32.9583H52.2917V42.375H71.125V61.2083H80.5417V42.375H99.375V32.9583Z" fill="#00598E"/>
</svg>
