<svg width="114" height="113" viewBox="0 0 114 113" fill="none" xmlns="http://www.w3.org/2000/svg">
<path d="M94.6667 61.2083V27.0682C94.667 26.6966 94.5939 26.3285 94.4517 25.9851C94.3095 25.6417 94.101 25.3298 93.838 25.0672L79.0162 10.2453C78.4869 9.71539 77.7688 9.41733 77.0198 9.41667H22.1583C21.4091 9.41667 20.6906 9.7143 20.1608 10.2441C19.631 10.7739 19.3333 11.4924 19.3333 12.2417V100.758C19.3333 101.508 19.631 102.226 20.1608 102.756C20.6906 103.286 21.4091 103.583 22.1583 103.583H66.4167" stroke="#81CEFF" stroke-width="7.0625" stroke-linecap="round" stroke-linejoin="round"/>
<path d="M75.8334 9.41668V25.425C75.8334 26.1742 76.131 26.8928 76.6608 27.4226C77.1906 27.9524 77.9091 28.25 78.6584 28.25H94.6667M75.8334 89.4583H104.083M104.083 89.4583L89.9584 75.3333M104.083 89.4583L89.9584 103.583" stroke="#81CEFF" stroke-width="7.0625" stroke-linecap="round" stroke-linejoin="round"/>
</svg>
